<svg xmlns="http://www.w3.org/2000/svg" xmlns:xlink="http://www.w3.org/1999/xlink" aria-hidden="true" role="img" class="iconify iconify--ph" width="1em" height="1em" preserveAspectRatio="xMidYMid meet" viewBox="0 0 256 256"><path d="M143.515 112.485a12 12 0 0 1 0-16.97L179.029 60H168a12 12 0 0 1 0-24h40c.395 0 .79.021 1.184.06c.178.017.35.05.525.076c.213.03.426.055.636.096c.2.04.393.095.588.144c.184.046.37.087.552.142c.19.058.374.13.56.196c.184.065.368.126.549.201c.173.071.338.156.507.235c.186.088.374.17.557.269c.16.085.312.183.467.275c.181.108.364.21.54.328c.17.114.328.24.491.362c.15.112.305.217.452.338q.433.356.832.752l.045.04c.016.016.029.034.044.05q.394.397.75.829c.12.146.224.3.337.45c.121.163.248.322.361.491c.12.178.222.362.33.544c.092.154.189.305.274.463c.099.184.183.374.271.562c.079.167.162.331.233.503c.076.183.137.37.203.556c.066.184.137.364.193.552c.057.188.1.38.147.57c.047.189.1.376.139.568c.043.221.07.444.102.666c.023.166.055.328.07.495q.06.595.06 1.192V88a12 12 0 0 1-24 0V76.97l-35.514 35.515a12 12 0 0 1-16.97 0zm-48 31.03L60 179.029V168a12 12 0 0 0-24 0v39.995q0 .596.06 1.192c.016.167.048.33.071.495c.032.222.058.445.102.666c.038.193.092.38.14.568c.046.19.088.382.146.57c.056.187.127.368.192.551c.066.187.128.374.204.558c.071.17.154.334.233.501c.088.189.172.378.27.563c.086.159.184.31.276.465c.108.181.21.364.328.541c.115.17.243.331.365.496c.112.149.215.301.334.446q.36.439.76.84c.012.012.021.026.034.038c.01.011.022.02.033.03q.404.401.844.764c.146.12.3.224.45.336c.164.122.324.249.493.363c.175.117.357.219.537.326c.156.093.31.191.47.278c.182.097.37.18.555.267c.17.08.336.164.51.236c.18.075.364.135.547.2c.186.068.37.14.561.197c.182.055.367.096.551.142c.196.049.39.104.59.144c.21.041.422.066.634.096c.175.026.348.059.526.076c.394.039.789.06 1.184.06h40a12 12 0 0 0 0-24H76.97l35.515-35.515a12 12 0 0 0-16.97-16.97zm122.098 71.646c.122-.165.25-.325.365-.496c.118-.177.22-.36.328-.541c.092-.155.19-.306.275-.465c.099-.184.182-.373.27-.56c.08-.168.163-.333.234-.505c.076-.183.137-.37.204-.555c.065-.184.136-.365.192-.553c.058-.188.1-.38.147-.57c.047-.188.1-.375.14-.568c.043-.221.07-.444.1-.666c.024-.166.056-.328.072-.495q.06-.595.06-1.192V168a12 12 0 0 0-24 0v11.03l-35.515-35.515a12 12 0 0 0-16.97 16.97L179.029 196H168a12 12 0 0 0 0 24h40c.395 0 .79-.021 1.184-.06c.178-.017.35-.05.525-.076c.213-.03.425-.055.636-.096c.2-.04.393-.095.588-.144c.184-.046.37-.087.552-.142c.19-.058.375-.13.562-.197c.182-.065.366-.125.546-.2c.174-.072.341-.156.511-.236c.185-.088.372-.17.554-.267c.16-.086.313-.185.469-.278c.18-.107.362-.21.538-.326c.17-.114.328-.24.491-.362c.15-.112.305-.217.452-.337q.44-.362.844-.763c.01-.011.023-.02.033-.03c.013-.013.022-.027.035-.039q.399-.402.76-.84c.118-.145.221-.297.333-.446zM76.97 60H88a12 12 0 0 0 0-24H48c-.395 0-.79.021-1.184.06c-.178.017-.35.05-.526.076c-.212.03-.425.055-.635.096c-.2.04-.393.095-.589.144c-.184.046-.369.087-.55.142c-.19.058-.374.129-.56.196c-.184.065-.37.126-.55.201c-.172.071-.337.155-.506.234c-.187.088-.375.172-.558.27c-.16.085-.313.183-.468.276c-.18.108-.363.21-.539.327c-.17.114-.33.24-.493.363c-.15.112-.304.217-.45.337q-.434.356-.832.752l-.045.04c-.016.016-.029.034-.044.05q-.394.397-.75.829c-.12.146-.224.3-.337.45c-.121.163-.248.322-.361.491c-.12.178-.222.362-.33.544c-.092.154-.19.305-.274.463c-.1.185-.183.375-.272.564c-.078.167-.161.33-.232.5c-.076.184-.138.372-.204.559c-.066.182-.136.363-.192.55c-.058.188-.1.38-.147.57c-.047.188-.1.375-.14.568c-.043.221-.07.444-.1.666c-.024.166-.056.328-.072.495q-.06.595-.06 1.192V88a12 12 0 0 0 24 0V76.97l35.515 35.515a12 12 0 0 0 16.97-16.97z" fill="currentColor"></path></svg>