<svg xmlns="http://www.w3.org/2000/svg" xmlns:xlink="http://www.w3.org/1999/xlink" aria-hidden="true" role="img" class="iconify iconify--ph" width="1em" height="1em" preserveAspectRatio="xMidYMid meet" viewBox="0 0 256 256"><path d="M140 103.995V64a12 12 0 0 1 24 0v11.03l35.515-35.515a12 12 0 0 1 16.97 16.97L180.971 92H192a12 12 0 0 1 0 24h-40c-.395 0-.79-.021-1.184-.06c-.178-.017-.35-.05-.526-.076c-.212-.03-.425-.055-.635-.097c-.198-.039-.391-.094-.586-.143c-.185-.046-.371-.087-.554-.142c-.189-.057-.371-.128-.556-.194c-.185-.067-.371-.128-.554-.203c-.17-.071-.334-.154-.5-.233c-.19-.088-.38-.172-.564-.27c-.158-.086-.308-.182-.462-.274c-.182-.108-.367-.212-.545-.331c-.166-.111-.322-.235-.482-.355c-.154-.114-.311-.221-.46-.344a11.908 11.908 0 0 1-.818-.74l-.06-.053c-.02-.019-.034-.04-.053-.059a12.035 12.035 0 0 1-.74-.819c-.12-.146-.224-.3-.337-.45c-.121-.163-.248-.322-.361-.492c-.119-.177-.222-.36-.33-.542c-.092-.155-.19-.306-.274-.464c-.099-.185-.183-.375-.271-.563c-.079-.167-.162-.33-.233-.501c-.076-.184-.138-.372-.204-.558c-.066-.183-.136-.364-.192-.55c-.058-.189-.1-.38-.147-.57c-.047-.19-.1-.376-.14-.57c-.043-.22-.07-.443-.1-.665c-.024-.166-.056-.328-.072-.496q-.06-.594-.06-1.191zm-24.06 46.819c-.016-.168-.048-.33-.071-.496c-.032-.222-.058-.445-.102-.666c-.038-.193-.092-.38-.14-.569c-.046-.19-.088-.381-.146-.57c-.056-.187-.127-.368-.192-.55c-.067-.187-.128-.374-.204-.557c-.071-.172-.155-.336-.233-.503c-.089-.188-.172-.377-.271-.562c-.085-.158-.182-.31-.274-.464c-.108-.181-.211-.365-.33-.542c-.113-.17-.24-.329-.361-.492c-.113-.15-.217-.304-.337-.45a12.035 12.035 0 0 0-.74-.82c-.019-.018-.035-.04-.054-.058s-.04-.035-.059-.054a11.908 11.908 0 0 0-.818-.739c-.15-.124-.309-.232-.463-.347c-.16-.118-.314-.241-.478-.352c-.18-.12-.368-.225-.553-.335c-.151-.09-.299-.185-.454-.269c-.187-.1-.38-.185-.57-.274c-.164-.077-.326-.16-.494-.23c-.186-.076-.375-.139-.564-.206c-.18-.065-.36-.134-.545-.19c-.19-.058-.381-.1-.572-.148c-.19-.047-.375-.1-.567-.138c-.222-.044-.445-.07-.668-.102c-.164-.023-.326-.055-.493-.071c-.396-.04-.794-.06-1.192-.06H64a12 12 0 0 0 0 24h11.03l-35.515 35.515a12 12 0 0 0 16.97 16.97L92 180.971V192a12 12 0 0 0 24 0v-39.995q0-.597-.06-1.191zM180.97 164H192a12 12 0 0 0 0-24h-39.995c-.398 0-.796.02-1.192.06c-.167.016-.329.048-.494.071c-.222.032-.445.058-.667.102c-.192.038-.378.091-.567.138c-.191.048-.383.09-.572.148c-.185.056-.364.125-.544.19c-.19.067-.38.13-.565.207c-.168.07-.329.151-.493.228c-.191.09-.384.175-.571.275c-.156.084-.303.18-.455.27c-.185.11-.371.214-.551.334c-.166.11-.32.234-.48.353c-.154.115-.313.223-.462.346c-.285.233-.557.481-.818.74l-.06.053c-.02.019-.034.04-.053.059c-.258.262-.506.534-.74.819c-.12.146-.224.3-.337.45c-.121.163-.248.322-.361.492c-.119.177-.222.36-.33.542c-.092.155-.19.305-.274.464c-.1.185-.183.375-.272.564c-.078.166-.16.33-.232.5c-.076.184-.138.372-.204.559c-.066.183-.136.363-.192.55c-.058.188-.1.379-.147.57c-.047.189-.1.375-.14.568c-.043.22-.07.444-.1.666c-.024.166-.056.328-.072.496q-.06.594-.06 1.191V192a12 12 0 0 0 24 0v-11.03l35.515 35.515a12 12 0 0 0 16.97-16.97zM116 64a12 12 0 0 0-24 0v11.03L56.485 39.514a12 12 0 0 0-16.97 16.97L75.029 92H64a12 12 0 0 0 0 24h40c.395 0 .79-.021 1.184-.06c.178-.017.35-.05.525-.076c.213-.03.426-.055.636-.097c.198-.039.39-.093.586-.143c.185-.046.37-.087.554-.142c.19-.057.371-.128.556-.195c.185-.066.371-.127.553-.202c.172-.071.336-.155.503-.233c.188-.089.378-.172.562-.271c.157-.085.307-.18.46-.272c.184-.109.369-.213.547-.332c.166-.111.32-.235.48-.353c.155-.115.312-.223.462-.346c.285-.233.557-.481.818-.74l.06-.053c.02-.019.034-.04.053-.059c.258-.262.506-.534.74-.819c.12-.146.224-.3.337-.45c.121-.163.248-.322.361-.492c.119-.177.222-.36.33-.542c.092-.155.19-.306.274-.464c.099-.184.182-.373.27-.56c.08-.168.163-.333.234-.505c.076-.183.137-.37.204-.555c.065-.184.136-.365.192-.552c.058-.189.1-.38.147-.57c.047-.19.1-.376.14-.57c.043-.22.07-.443.1-.665c.024-.166.056-.328.072-.496q.06-.594.06-1.191z" fill="currentColor"></path></svg>