<svg xmlns="http://www.w3.org/2000/svg" xmlns:xlink="http://www.w3.org/1999/xlink" aria-hidden="true" role="img" class="iconify iconify--ph" width="1em" height="1em" preserveAspectRatio="xMidYMid meet" viewBox="0 0 256 256"><path d="M103.549 234.251a19.955 19.955 0 0 1-18.894-13.457L26.051 51.489v.001a20 20 0 0 1 25.442-25.442l169.303 58.605a20 20 0 0 1-.66 38.015l-74.532 22.934l-22.933 74.53a19.956 19.956 0 0 1-18.768 14.116q-.177.003-.354.003zm3.786-21.309zM51.424 51.422l51.907 149.954l19.956-64.857a19.98 19.98 0 0 1 13.238-13.235l64.854-19.955zm-2.694-7.783l.004.012z" fill="currentColor"></path></svg>